<svg xmlns="http://www.w3.org/2000/svg" viewBox="0 0 128 128"><defs><linearGradient id="c" x2="0" y2="1"><stop stop-color="#ffe5a5"/><stop offset="1" stop-color="#c9713e"/></linearGradient><filter id="s"><feDropShadow dy="5" stdDeviation="4" flood-color="#703529" flood-opacity=".3"/></filter></defs><ellipse cx="64" cy="105" rx="47" ry="10" fill="#74402d" opacity=".2"/><g filter="url(#s)"><path d="M25 66h78l-10 34H35z" fill="url(#c)" stroke="#9a4d32" stroke-width="4"/><ellipse cx="64" cy="65" rx="39" ry="18" fill="#fff1cc" stroke="#a85f3c" stroke-width="4"/><path d="M35 63c6-19 20-30 29-30s23 11 29 30" fill="#ffb6ca" stroke="#d9658b" stroke-width="4"/><circle cx="48" cy="51" r="9" fill="#d94e70"/><circle cx="65" cy="44" r="9" fill="#e85e7c"/><circle cx="81" cy="53" r="9" fill="#c94467"/><circle cx="58" cy="59" r="8" fill="#b94e98"/><circle cx="76" cy="62" r="8" fill="#aa4e99"/><path d="m63 28 4 8 9 1-7 6 2 9-8-4-8 4 2-9-7-6 9-1Z" fill="#fff19b" stroke="#e0a541" stroke-width="2"/></g></svg>
