<svg xmlns="http://www.w3.org/2000/svg" viewBox="0 0 170 280"><defs><linearGradient id="w" x2="0" y2="1"><stop stop-color="#ffd8e8"/><stop offset=".52" stop-color="#ef9fbe"/><stop offset="1" stop-color="#c879a5"/></linearGradient><filter id="s"><feDropShadow dy="9" stdDeviation="7" flood-color="#63394e" flood-opacity=".32"/></filter></defs><ellipse cx="85" cy="267" rx="70" ry="10" fill="#643a4e" opacity=".2"/><g filter="url(#s)"><path d="M20 51c0-25 22-43 65-43s65 18 65 43v206H20z" fill="url(#w)" stroke="#92516f" stroke-width="7"/><path d="M32 63h106v178H32z" fill="#fff3e7" opacity=".34" stroke="#fff6ed" stroke-width="4"/><path d="M85 61v182" stroke="#8c4c6b" stroke-width="5"/><circle cx="75" cy="144" r="5" fill="#ffd96b" stroke="#9b5c35" stroke-width="3"/><circle cx="95" cy="144" r="5" fill="#ffd96b" stroke="#9b5c35" stroke-width="3"/><path d="m85 20 8 16 18 3-13 12 3 18-16-9-16 9 3-18-13-12 18-3Z" fill="#ffe27e" stroke="#d69b3e" stroke-width="3"/><path d="M42 80c17 11 34 11 43 0 9 11 26 11 43 0" fill="none" stroke="#fff4e5" stroke-width="5"/></g></svg>
