<svg xmlns="http://www.w3.org/2000/svg" viewBox="0 0 150 250"><defs><linearGradient id="w" x2="0" y2="1"><stop stop-color="#f1b774"/><stop offset="1" stop-color="#a95e3b"/></linearGradient><filter id="s"><feDropShadow dy="8" stdDeviation="6" flood-color="#5f3b32" flood-opacity=".3"/></filter></defs><ellipse cx="75" cy="238" rx="62" ry="9" fill="#5c3b34" opacity=".2"/><g filter="url(#s)"><path d="M16 28h118v204H16z" fill="url(#w)" stroke="#7f452f" stroke-width="7"/><path d="M28 42h94v48H28zM28 103h94v48H28zM28 164h94v50H28z" fill="#fff0c9" stroke="#935236" stroke-width="5"/><circle cx="52" cy="68" r="17" fill="#ffc86b" stroke="#b65e4c" stroke-width="3"/><path d="m52 54 4 8 9 1-7 7 2 9-8-4-8 4 2-9-7-7 9-1Z" fill="#fff3ba"/><path d="M76 78c8-20 20-20 29 0" fill="#f49abe" stroke="#b75f82" stroke-width="4"/><path d="M44 118c-15 19-4 31 12 26 13-4 20-16 22-28-16 4-25 2-34 2Z" fill="#ffe27c" stroke="#c9823c" stroke-width="3"/><rect x="83" y="115" width="28" height="28" rx="7" fill="#a7d8ed" stroke="#5a9ab5" stroke-width="3"/><path d="m97 118 4 8 8 1-6 6 2 8-8-4-8 4 2-8-6-6 8-1Z" fill="#fff"/><g fill="#f7a7c2"><circle cx="48" cy="187" r="15"/><circle cx="82" cy="185" r="13"/><circle cx="106" cy="190" r="15"/></g></g></svg>
