<svg xmlns="http://www.w3.org/2000/svg" viewBox="0 0 135 250"><defs><linearGradient id="w" x2="0" y2="1"><stop stop-color="#e9b279"/><stop offset="1" stop-color="#96543a"/></linearGradient><linearGradient id="g" x2="1" y2="1"><stop stop-color="#fff" stop-opacity=".75"/><stop offset="1" stop-color="#bfe7f2" stop-opacity=".45"/></linearGradient><filter id="s"><feDropShadow dy="8" stdDeviation="6" flood-color="#5b3a31" flood-opacity=".32"/></filter></defs><ellipse cx="68" cy="239" rx="54" ry="9" fill="#593932" opacity=".2"/><g filter="url(#s)"><path d="M14 24h107v207H14z" fill="url(#w)" stroke="#75422f" stroke-width="7"/><rect x="27" y="39" width="81" height="54" rx="5" fill="url(#g)" stroke="#fff3dc" stroke-width="4"/><rect x="27" y="105" width="81" height="54" rx="5" fill="url(#g)" stroke="#fff3dc" stroke-width="4"/><rect x="27" y="171" width="81" height="43" rx="5" fill="url(#g)" stroke="#fff3dc" stroke-width="4"/><path d="m67 47 6 12 13 2-10 9 3 14-12-7-12 7 3-14-10-9 13-2Z" fill="#ffd969" stroke="#d2933a" stroke-width="3"/><circle cx="49" cy="132" r="14" fill="#f6a5c3" stroke="#b45c7f" stroke-width="3"/><circle cx="85" cy="132" r="14" fill="#a7d9ef" stroke="#5d9bb7" stroke-width="3"/><path d="M45 185h46l9 24H36z" fill="#fff0b9" stroke="#a9683c" stroke-width="3"/></g></svg>
