<svg xmlns="http://www.w3.org/2000/svg" viewBox="0 0 120 250"><defs><linearGradient id="b" x2="0" y2="1"><stop stop-color="#fff8e9"/><stop offset="1" stop-color="#f1c98e"/></linearGradient><filter id="s"><feDropShadow dy="8" stdDeviation="6" flood-color="#633c34" flood-opacity=".3"/></filter></defs><ellipse cx="61" cy="236" rx="48" ry="9" fill="#654036" opacity=".2"/><g filter="url(#s)"><rect x="13" y="19" width="94" height="211" rx="25" fill="url(#b)" stroke="#a6603c" stroke-width="6"/><path d="M15 92h90" stroke="#a6603c" stroke-width="5"/><path d="M86 42v31M86 114v38" stroke="#bc7047" stroke-width="6" stroke-linecap="round"/><path d="m43 40 6 12 14 2-10 10 2 14-12-6-13 6 3-14-10-10 14-2Z" fill="#ffd969" stroke="#d6953a" stroke-width="3"/><g fill="#ff9ebe" stroke="#c75e82" stroke-width="2"><circle cx="48" cy="130" r="11"/><path d="M48 119c-2-7 2-10 7-12" fill="none"/></g><path d="M27 183c18-10 39-10 58 0v29H27z" fill="#fff" opacity=".65"/></g></svg>
