<svg xmlns="http://www.w3.org/2000/svg" viewBox="0 0 128 128"><defs><linearGradient id="m" x2="1" y2="1"><stop stop-color="#fff5ba"/><stop offset="1" stop-color="#efb34f"/></linearGradient><filter id="s"><feDropShadow dy="6" stdDeviation="5" flood-color="#5f3c3c" flood-opacity=".3"/></filter></defs><ellipse cx="67" cy="107" rx="43" ry="9" fill="#684039" opacity=".2"/><path d="M78 18c-23 2-42 20-42 44 0 25 20 45 45 45 15 0 28-7 36-18-7 4-14 6-22 6-24 0-43-19-43-43 0-14 7-27 18-35 3-1 5-1 8 1Z" fill="url(#m)" stroke="#c98538" stroke-width="5" filter="url(#s)"/><path d="m82 46 5 10 11 2-8 8 2 11-10-5-10 5 2-11-8-8 11-2Z" fill="#fff9dc" stroke="#dfa543" stroke-width="2"/></svg>
