<svg xmlns="http://www.w3.org/2000/svg" viewBox="0 0 128 128"><defs><linearGradient id="d" x2="0" y2="1"><stop stop-color="#ffe4ee"/><stop offset=".45" stop-color="#f7a9c9"/><stop offset="1" stop-color="#df76a7"/></linearGradient><filter id="s"><feDropShadow dy="5" stdDeviation="4" flood-color="#6f3d54" flood-opacity=".32"/></filter></defs><ellipse cx="64" cy="112" rx="47" ry="9" fill="#6c3b4e" opacity=".2"/><g filter="url(#s)"><path d="M45 25c0 17-6 25-14 34l16 12-19 33c23 10 49 10 72 0L81 71l16-12c-8-9-14-17-14-34l-19 13Z" fill="url(#d)" stroke="#b95885" stroke-width="4"/><path d="M50 28c1 12 5 19 14 25 9-6 13-13 14-25" fill="#fff7ef" stroke="#d77ba4" stroke-width="4"/><path d="M36 84c19 9 37 9 56 0M31 96c22 9 44 9 66 0" fill="none" stroke="#fff5e9" stroke-width="5"/><path d="m64 54 5 9 10 2-7 7 2 10-10-5-10 5 2-10-7-7 10-2Z" fill="#ffd865" stroke="#d79a3b" stroke-width="2"/><path d="M42 18c8-7 15 0 22 8 7-8 14-15 22-8 1 13-9 18-22 11-13 7-23 2-22-11Z" fill="#ffb6cf" stroke="#c76591" stroke-width="3"/></g></svg>
