<svg xmlns="http://www.w3.org/2000/svg" viewBox="0 0 128 128"><defs><linearGradient id="b" x2="0" y2="1"><stop stop-color="#fff"/><stop offset="1" stop-color="#ffd4df"/></linearGradient><linearGradient id="m" x2="0" y2="1"><stop stop-color="#ffc4d6"/><stop offset="1" stop-color="#ef7da5"/></linearGradient><filter id="s"><feDropShadow dy="5" stdDeviation="4" flood-color="#6f3c35" flood-opacity=".3"/></filter></defs><ellipse cx="64" cy="113" rx="31" ry="8" fill="#6d3e32" opacity=".2"/><g filter="url(#s)"><path d="M38 34h52l8 15-7 58H37l-7-58Z" fill="url(#b)" stroke="#b86970" stroke-width="4"/><path d="M35 51h58l-3 48H39z" fill="url(#m)"/><path d="M41 21h45l4 13H38z" fill="#fff8ed" stroke="#b86970" stroke-width="4"/><path d="M60 21V12h25" fill="none" stroke="#d85c8a" stroke-width="5" stroke-linecap="round"/><path d="M64 61c13-15 30 4 13 17-7 6-13 9-13 9s-6-3-13-9c-17-13 0-32 13-17Z" fill="#ff587f" stroke="#b43759" stroke-width="3"/><path d="m64 58-5-6 6 2 5-3-2 7" fill="#65a66b"/></g></svg>
