<svg xmlns="http://www.w3.org/2000/svg" viewBox="0 0 128 128"><defs><linearGradient id="c" x2="0" y2="1"><stop stop-color="#fff4d0"/><stop offset=".45" stop-color="#f2b75d"/><stop offset="1" stop-color="#ce7b3f"/></linearGradient><filter id="s"><feDropShadow dy="6" stdDeviation="4" flood-color="#593428" flood-opacity=".35"/></filter></defs><ellipse cx="64" cy="112" rx="46" ry="8" fill="#613b31" opacity=".2"/><g filter="url(#s)"><path d="M42 28c-10 12-17 30-21 77 26 9 60 9 86 0-4-47-11-65-21-77L64 43Z" fill="url(#c)" stroke="#8c4b2d" stroke-width="5"/><path d="M43 26c5 18 12 27 21 27s16-9 21-27" fill="#fff8e7" stroke="#a86338" stroke-width="4"/><path d="M38 23c-8-2-12-11-8-18 4 8 11 10 20 6M90 11c9 4 16 2 20-6 4 7 0 16-8 18" fill="#ffd76a" stroke="#a66432" stroke-width="4" stroke-linecap="round"/><circle cx="64" cy="57" r="18" fill="#ffd862" stroke="#a65e2c" stroke-width="4"/><path d="M54 54c4-7 7-9 10-9s6 2 10 9c-2 8-5 12-10 12s-8-4-10-12Z" fill="none" stroke="#9b5b2c" stroke-width="3"/></g></svg>
